<svg xmlns="http://www.w3.org/2000/svg" width="24" height="24" viewBox="0 0 48 48"><g><path fill="#4285F4" d="M44.5 20H24v8.5h11.7C34.7 33.9 29.8 37 24 37c-7.2 0-13-5.8-13-13s5.8-13 13-13c3.1 0 5.9 1.1 8.1 2.9l6.4-6.4C34.5 4.5 29.5 2 24 2 12.9 2 4 10.9 4 22s8.9 20 20 20c11 0 19.7-8 19.7-20 0-1.3-.1-2.7-.2-4z"/><path fill="#34A853" d="M6.3 14.7l7 5.1C15.5 16.1 19.4 13 24 13c3.1 0 5.9 1.1 8.1 2.9l6.4-6.4C34.5 4.5 29.5 2 24 2 15.1 2 7.6 7.7 6.3 14.7z"/><path fill="#FBBC05" d="M24 44c5.6 0 10.5-1.9 14.3-5.1l-6.6-5.4C29.7 35.6 27 37 24 37c-5.7 0-10.5-3.8-12.2-9l-7 5.4C7.5 40.3 15.1 44 24 44z"/><path fill="#EA4335" d="M44.5 20H24v8.5h11.7c-1.2 3.2-4.2 5.5-7.7 5.5-2.2 0-4.2-.7-5.7-2l-7 5.4C15.5 41.9 19.4 45 24 45c7.2 0 13-5.8 13-13 0-1.3-.1-2.7-.2-4z"/></g></svg>